<svg width="910" height="279" viewBox="0 0 910 279" fill="none" xmlns="http://www.w3.org/2000/svg">
<path d="M100.986 274.427C82.579 274.427 64.2982 272.027 46.1434 267.229C27.9886 262.177 12.6075 255.106 0 246.013L23.8281 199.037C33.9141 206.361 45.6391 212.17 59.003 216.463C72.367 220.757 85.857 222.904 99.4731 222.904C114.854 222.904 126.957 219.873 135.783 213.812C144.608 207.75 149.02 199.415 149.02 188.808C149.02 178.705 145.112 170.749 137.296 164.94C129.479 159.132 116.871 156.227 99.4731 156.227H71.4845V115.691L145.238 31.9658L152.046 53.9388H13.2379V4.68896H198.568V44.4677L125.192 128.193L94.1779 110.387H111.954C144.482 110.387 169.066 117.711 185.708 132.36C202.35 147.008 210.671 165.824 210.671 188.808C210.671 203.709 206.763 217.726 198.946 230.86C191.13 243.74 179.152 254.222 163.015 262.304C146.877 270.386 126.201 274.427 100.986 274.427Z" fill="white"/>
<path d="M277.74 270.489L384.628 28.2313L400.548 54.8113H257.651L284.941 25.953V98.0987H230.36V4.68896H443V44.559L344.45 270.489H277.74Z" fill="#E4FF1A"/>
<path d="M484.65 278.277C476.25 278.277 469.717 275.827 465.05 270.927C460.617 266.027 458.4 259.143 458.4 250.277C458.4 242.11 460.733 235.46 465.4 230.327C470.3 224.96 476.717 222.277 484.65 222.277C493.05 222.277 499.467 224.727 503.9 229.627C508.567 234.293 510.9 241.177 510.9 250.277C510.9 258.443 508.45 265.21 503.55 270.577C498.883 275.71 492.583 278.277 484.65 278.277ZM649.248 277.927C634.082 277.927 620.315 273.727 607.948 265.327C595.582 256.927 585.665 245.493 578.198 231.027C570.732 216.56 566.998 200.11 566.998 181.677C566.998 163.243 570.732 146.793 578.198 132.327C585.665 117.86 595.815 106.543 608.648 98.3768C621.482 90.2101 635.948 86.1267 652.048 86.1267C661.382 86.1267 669.898 87.5267 677.598 90.3267C685.298 92.8934 692.065 96.6267 697.898 101.527C703.732 106.427 708.515 112.027 712.248 118.327C716.215 124.627 718.898 131.393 720.298 138.627L710.848 136.177V89.9768H754.248V274.427H710.498V230.327L720.648 228.577C719.015 234.877 715.982 241.06 711.548 247.127C707.348 252.96 701.982 258.21 695.448 262.877C689.148 267.31 682.032 270.927 674.098 273.727C666.398 276.527 658.115 277.927 649.248 277.927ZM661.148 239.777C671.182 239.777 680.048 237.327 687.748 232.427C695.448 227.527 701.398 220.76 705.598 212.127C710.032 203.26 712.248 193.11 712.248 181.677C712.248 170.477 710.032 160.56 705.598 151.927C701.398 143.293 695.448 136.527 687.748 131.627C680.048 126.727 671.182 124.277 661.148 124.277C651.115 124.277 642.248 126.727 634.548 131.627C627.082 136.527 621.248 143.293 617.048 151.927C612.848 160.56 610.748 170.477 610.748 181.677C610.748 193.11 612.848 203.26 617.048 212.127C621.248 220.76 627.082 227.527 634.548 232.427C642.248 237.327 651.115 239.777 661.148 239.777ZM837.059 274.427V89.9768H880.109V274.427H837.059ZM858.059 50.7767C849.426 50.7767 842.659 48.6767 837.759 44.4768C833.092 40.0434 830.759 33.8601 830.759 25.9267C830.759 18.4601 833.209 12.3934 838.109 7.72675C843.009 3.06007 849.659 0.726735 858.059 0.726735C866.926 0.726735 873.692 2.94341 878.359 7.37675C883.259 11.5767 885.709 17.7601 885.709 25.9267C885.709 33.1601 883.259 39.1101 878.359 43.7767C873.459 48.4434 866.692 50.7767 858.059 50.7767Z" fill="#E4FF1A"/>
</svg>
