<svg width="1210" height="275" viewBox="0 0 1210 275" fill="none" xmlns="http://www.w3.org/2000/svg">
<path d="M100.986 270.476C82.579 270.476 64.2982 268.076 46.1434 263.277C27.9886 258.226 12.6075 251.154 0 242.062L23.8281 195.085C33.9141 202.41 45.6391 208.219 59.003 212.512C72.367 216.806 85.857 218.953 99.4731 218.953C114.854 218.953 126.957 215.922 135.783 209.86C144.608 203.799 149.02 195.464 149.02 184.857C149.02 174.754 145.112 166.798 137.296 160.989C129.479 155.18 116.871 152.276 99.4731 152.276H71.4845V111.739L145.238 28.0147L152.046 49.9877H13.2379V0.737793H198.568V40.5165L125.192 124.241L94.1779 106.436H111.954C144.482 106.436 169.066 113.76 185.708 128.409C202.35 143.057 210.671 161.873 210.671 184.857C210.671 199.758 206.763 213.775 198.946 226.908C191.13 239.789 179.152 250.27 163.015 258.353C146.877 266.435 126.201 270.476 100.986 270.476Z" fill="#2E2E2E"/>
<path d="M277.74 266.538L384.628 24.2801L400.548 50.8601H257.651L284.941 22.0018V94.1475H230.36V0.737793H443V40.6078L344.45 266.538H277.74Z" fill="#FC60A8"/>
<path d="M484.65 274.326C476.25 274.326 469.717 271.876 465.05 266.976C460.617 262.076 458.4 255.192 458.4 246.326C458.4 238.159 460.733 231.509 465.4 226.376C470.3 221.009 476.717 218.326 484.65 218.326C493.05 218.326 499.467 220.776 503.9 225.676C508.567 230.342 510.9 237.226 510.9 246.326C510.9 254.492 508.45 261.259 503.55 266.626C498.883 271.759 492.583 274.326 484.65 274.326ZM653.798 273.976C637.465 273.976 622.765 269.892 609.698 261.726C596.865 253.326 586.598 242.009 578.898 227.776C571.432 213.309 567.698 196.742 567.698 178.076C567.698 159.642 571.432 143.192 578.898 128.726C586.365 114.259 596.515 102.942 609.348 94.7756C622.415 86.3756 637.115 82.1756 653.448 82.1756C662.315 82.1756 670.832 83.5756 678.998 86.3756C687.398 89.1756 694.865 93.0256 701.398 97.9256C707.932 102.592 713.065 107.842 716.798 113.676C720.765 119.509 722.982 125.576 723.448 131.876L711.898 133.276V11.4756H754.948V270.476H713.298L712.248 227.076L720.648 227.776C720.415 233.609 718.315 239.209 714.348 244.576C710.615 249.942 705.715 254.842 699.648 259.276C693.582 263.709 686.465 267.326 678.298 270.126C670.365 272.692 662.198 273.976 653.798 273.976ZM662.198 237.576C672.232 237.576 681.098 235.009 688.798 229.876C696.498 224.742 702.448 217.742 706.648 208.876C711.082 200.009 713.298 189.742 713.298 178.076C713.298 166.642 711.082 156.492 706.648 147.626C702.448 138.526 696.498 131.526 688.798 126.626C681.098 121.492 672.232 118.926 662.198 118.926C652.165 118.926 643.298 121.492 635.598 126.626C627.898 131.526 621.832 138.526 617.398 147.626C613.198 156.492 611.098 166.642 611.098 178.076C611.098 189.742 613.198 200.009 617.398 208.876C621.832 217.742 627.898 224.742 635.598 229.876C643.298 235.009 652.165 237.576 662.198 237.576ZM918.267 273.976C898.901 273.976 881.751 269.892 866.817 261.726C852.117 253.559 840.567 242.476 832.167 228.476C824.001 214.242 819.917 198.026 819.917 179.826C819.917 165.359 822.251 152.176 826.917 140.276C831.584 128.376 838.001 118.109 846.167 109.476C854.567 100.609 864.484 93.8422 875.917 89.1756C887.584 84.2756 900.301 81.8256 914.067 81.8256C926.201 81.8256 937.517 84.1589 948.017 88.8256C958.517 93.4922 967.617 99.9089 975.317 108.076C983.017 116.009 988.851 125.576 992.817 136.776C997.017 147.742 999.001 159.759 998.767 172.826L998.417 187.876H848.967L840.917 158.476H962.367L956.767 164.426V156.726C956.067 149.492 953.734 143.192 949.767 137.826C945.801 132.226 940.667 127.909 934.367 124.876C928.301 121.609 921.534 119.976 914.067 119.976C902.634 119.976 892.951 122.192 885.017 126.626C877.317 131.059 871.484 137.476 867.517 145.876C863.551 154.042 861.567 164.309 861.567 176.676C861.567 188.576 864.017 198.959 868.917 207.826C874.051 216.692 881.167 223.576 890.267 228.476C899.601 233.142 910.451 235.476 922.817 235.476C931.451 235.476 939.384 234.076 946.617 231.276C953.851 228.476 961.667 223.459 970.067 216.226L991.417 245.976C985.117 251.809 977.884 256.826 969.717 261.026C961.784 264.992 953.384 268.142 944.517 270.476C935.651 272.809 926.901 273.976 918.267 273.976ZM1126.5 273.976C1110.16 273.976 1095.46 271.292 1082.4 265.926C1069.56 260.326 1059.06 252.392 1050.9 242.126L1078.9 217.976C1085.9 225.909 1093.71 231.626 1102.35 235.126C1110.98 238.626 1120.08 240.376 1129.65 240.376C1133.61 240.376 1137.11 239.909 1140.15 238.976C1143.41 238.042 1146.21 236.642 1148.55 234.776C1150.88 232.909 1152.63 230.809 1153.8 228.476C1155.2 225.909 1155.9 223.109 1155.9 220.076C1155.9 214.476 1153.8 210.042 1149.6 206.776C1147.26 205.142 1143.53 203.392 1138.4 201.526C1133.5 199.659 1127.08 197.792 1119.15 195.926C1106.55 192.659 1096.05 188.926 1087.65 184.726C1079.25 180.292 1072.71 175.392 1068.05 170.026C1064.08 165.592 1061.05 160.576 1058.95 154.976C1057.08 149.376 1056.15 143.309 1056.15 136.776C1056.15 128.609 1057.9 121.259 1061.4 114.726C1065.13 107.959 1070.15 102.126 1076.45 97.2256C1082.75 92.3256 1090.1 88.5922 1098.5 86.0256C1106.9 83.4589 1115.65 82.1756 1124.75 82.1756C1134.08 82.1756 1143.06 83.3422 1151.7 85.6756C1160.56 88.0089 1168.73 91.3922 1176.2 95.8256C1183.9 100.026 1190.43 105.159 1195.8 111.226L1172 137.476C1167.56 133.276 1162.66 129.542 1157.3 126.276C1152.16 123.009 1146.91 120.442 1141.55 118.576C1136.18 116.476 1131.16 115.426 1126.5 115.426C1122.06 115.426 1118.1 115.892 1114.6 116.826C1111.1 117.526 1108.18 118.692 1105.85 120.326C1103.51 121.959 1101.65 124.059 1100.25 126.626C1099.08 128.959 1098.5 131.759 1098.5 135.026C1098.73 137.826 1099.43 140.509 1100.6 143.076C1102 145.409 1103.86 147.392 1106.2 149.026C1108.76 150.659 1112.61 152.526 1117.75 154.626C1122.88 156.726 1129.53 158.709 1137.7 160.576C1149.13 163.609 1158.7 166.992 1166.4 170.726C1174.1 174.459 1180.16 178.776 1184.6 183.676C1189.03 187.876 1192.18 192.776 1194.05 198.376C1195.91 203.976 1196.85 210.159 1196.85 216.926C1196.85 227.892 1193.7 237.692 1187.4 246.326C1181.33 254.959 1172.93 261.726 1162.2 266.626C1151.7 271.526 1139.8 273.976 1126.5 273.976Z" fill="#FC60A8"/>
</svg>
