<svg width="1262" height="275" viewBox="0 0 1262 275" fill="none" xmlns="http://www.w3.org/2000/svg">
<path d="M100.986 270.689C82.579 270.689 64.2982 268.29 46.1434 263.491C27.9886 258.44 12.6075 251.368 0 242.276L23.8281 195.299C33.9141 202.623 45.6391 208.432 59.003 212.726C72.367 217.019 85.857 219.166 99.4731 219.166C114.854 219.166 126.957 216.135 135.783 210.074C144.608 204.012 149.02 195.678 149.02 185.07C149.02 174.967 145.112 167.012 137.296 161.203C129.479 155.394 116.871 152.489 99.4731 152.489H71.4845V111.953L145.238 28.228L152.046 50.201H13.2379V0.951172H198.568V40.7299L125.192 124.455L94.1779 106.649H111.954C144.482 106.649 169.066 113.973 185.708 128.622C202.35 143.271 210.671 162.087 210.671 185.07C210.671 199.971 206.763 213.988 198.946 227.122C191.13 240.002 179.152 250.484 163.015 258.566C146.877 266.648 126.201 270.689 100.986 270.689Z" fill="#2E2E2E"/>
<path d="M277.74 266.751L384.628 24.4935L400.548 51.0735H257.651L284.941 22.2152V94.3609H230.36V0.951172H443V40.8212L344.45 266.751H277.74Z" fill="#70D6FF"/>
<path d="M484.65 274.539C476.25 274.539 469.717 272.089 465.05 267.189C460.617 262.289 458.4 255.406 458.4 246.539C458.4 238.372 460.733 231.722 465.4 226.589C470.3 221.222 476.717 218.539 484.65 218.539C493.05 218.539 499.467 220.989 503.9 225.889C508.567 230.556 510.9 237.439 510.9 246.539C510.9 254.706 508.45 261.472 503.55 266.839C498.883 271.972 492.583 274.539 484.65 274.539ZM666.048 274.189C646.682 274.189 629.532 270.106 614.598 261.939C599.898 253.772 588.348 242.689 579.948 228.689C571.782 214.456 567.698 198.239 567.698 180.039C567.698 165.572 570.032 152.389 574.698 140.489C579.365 128.589 585.782 118.322 593.948 109.689C602.348 100.822 612.265 94.0556 623.698 89.389C635.365 84.489 648.082 82.039 661.848 82.039C673.982 82.039 685.298 84.3723 695.798 89.0389C706.298 93.7056 715.398 100.122 723.098 108.289C730.798 116.222 736.632 125.789 740.598 136.989C744.798 147.956 746.782 159.972 746.548 173.039L746.198 188.089H596.748L588.698 158.689H710.148L704.548 164.639V156.939C703.848 149.706 701.515 143.406 697.548 138.039C693.582 132.439 688.448 128.122 682.148 125.089C676.082 121.822 669.315 120.189 661.848 120.189C650.415 120.189 640.732 122.406 632.798 126.839C625.098 131.272 619.265 137.689 615.298 146.089C611.332 154.256 609.348 164.522 609.348 176.889C609.348 188.789 611.798 199.172 616.698 208.039C621.832 216.906 628.948 223.789 638.048 228.689C647.382 233.356 658.232 235.689 670.598 235.689C679.232 235.689 687.165 234.289 694.398 231.489C701.632 228.689 709.448 223.672 717.848 216.439L739.198 246.189C732.898 252.022 725.665 257.039 717.498 261.239C709.565 265.206 701.165 268.356 692.298 270.689C683.432 273.022 674.682 274.189 666.048 274.189ZM886.877 274.189C870.543 274.189 855.843 270.106 842.777 261.939C829.943 253.539 819.677 242.222 811.977 227.989C804.51 213.522 800.777 196.956 800.777 178.289C800.777 159.856 804.51 143.406 811.977 128.939C819.443 114.472 829.593 103.156 842.427 94.989C855.493 86.5889 870.193 82.3889 886.527 82.3889C895.393 82.3889 903.91 83.789 912.077 86.589C920.477 89.389 927.943 93.239 934.477 98.139C941.01 102.806 946.143 108.056 949.877 113.889C953.843 119.722 956.06 125.789 956.527 132.089L944.977 133.489V11.689H988.027V270.689H946.377L945.327 227.289L953.727 227.989C953.493 233.822 951.393 239.422 947.427 244.789C943.693 250.156 938.793 255.056 932.727 259.489C926.66 263.922 919.543 267.539 911.377 270.339C903.443 272.906 895.277 274.189 886.877 274.189ZM895.277 237.789C905.31 237.789 914.177 235.222 921.877 230.089C929.577 224.956 935.527 217.956 939.727 209.089C944.16 200.222 946.377 189.956 946.377 178.289C946.377 166.856 944.16 156.706 939.727 147.839C935.527 138.739 929.577 131.739 921.877 126.839C914.177 121.706 905.31 119.139 895.277 119.139C885.243 119.139 876.377 121.706 868.677 126.839C860.977 131.739 854.91 138.739 850.477 147.839C846.277 156.706 844.177 166.856 844.177 178.289C844.177 189.956 846.277 200.222 850.477 209.089C854.91 217.956 860.977 224.956 868.677 230.089C876.377 235.222 885.243 237.789 895.277 237.789ZM1134.41 274.189C1121.11 274.189 1109.56 271.272 1099.76 265.439C1089.96 259.372 1082.5 250.856 1077.36 239.889C1072.23 228.689 1069.66 215.389 1069.66 199.989V86.239H1112.71V190.889C1112.71 200.689 1114.23 209.089 1117.26 216.089C1120.3 222.856 1124.73 228.106 1130.56 231.839C1136.4 235.572 1143.4 237.439 1151.56 237.439C1157.63 237.439 1163.11 236.506 1168.01 234.639C1173.15 232.539 1177.58 229.739 1181.31 226.239C1185.05 222.506 1187.96 218.189 1190.06 213.289C1192.16 208.156 1193.21 202.672 1193.21 196.839V86.239H1236.26V270.689H1194.26L1193.56 232.189L1201.26 227.989C1198.46 236.856 1193.68 244.789 1186.91 251.789C1180.38 258.556 1172.56 264.039 1163.46 268.239C1154.36 272.206 1144.68 274.189 1134.41 274.189Z" fill="#70D6FF"/>
</svg>
