<svg width="1182" height="274" viewBox="0 0 1182 274" fill="none" xmlns="http://www.w3.org/2000/svg">
<path d="M100.986 269.951C82.579 269.951 64.2982 267.552 46.1434 262.753C27.9886 257.702 12.6075 250.63 0 241.538L23.8281 194.561C33.9141 201.885 45.6391 207.694 59.003 211.988C72.367 216.281 85.857 218.428 99.4731 218.428C114.854 218.428 126.957 215.397 135.783 209.336C144.608 203.274 149.02 194.94 149.02 184.332C149.02 174.23 145.112 166.274 137.296 160.465C129.479 154.656 116.871 151.751 99.4731 151.751H71.4845V111.215L145.238 27.4902L152.046 49.4632H13.2379V0.213379H198.568V39.9921L125.192 123.717L94.1779 105.911H111.954C144.482 105.911 169.066 113.236 185.708 127.884C202.35 142.533 210.671 161.349 210.671 184.332C210.671 199.233 206.763 213.251 198.946 226.384C191.13 239.265 179.152 249.746 163.015 257.828C146.877 265.91 126.201 269.951 100.986 269.951Z" fill="#2E2E2E"/>
<path d="M277.74 266.013L384.628 23.7557L400.548 50.3357H257.651L284.941 21.4774V93.6231H230.36V0.213379H443V40.0834L344.45 266.013H277.74Z" fill="#FF7F11"/>
<path d="M484.65 273.801C476.25 273.801 469.717 271.351 465.05 266.451C460.617 261.551 458.4 254.668 458.4 245.801C458.4 237.635 460.733 230.985 465.4 225.851C470.3 220.485 476.717 217.801 484.65 217.801C493.05 217.801 499.467 220.251 503.9 225.151C508.567 229.818 510.9 236.701 510.9 245.801C510.9 253.968 508.45 260.735 503.55 266.101C498.883 271.235 492.583 273.801 484.65 273.801ZM663.948 273.451C645.515 273.451 629.065 269.368 614.598 261.201C600.132 252.801 588.698 241.368 580.298 226.901C571.898 212.435 567.698 195.985 567.698 177.551C567.698 159.118 571.898 142.668 580.298 128.201C588.698 113.734 600.132 102.418 614.598 94.2512C629.065 85.8512 645.515 81.6512 663.948 81.6512C682.148 81.6512 698.482 85.8512 712.948 94.2512C727.415 102.418 738.732 113.734 746.898 128.201C755.298 142.668 759.498 159.118 759.498 177.551C759.498 195.985 755.298 212.435 746.898 226.901C738.732 241.368 727.415 252.801 712.948 261.201C698.482 269.368 682.148 273.451 663.948 273.451ZM663.948 235.301C673.982 235.301 682.848 232.735 690.548 227.601C698.482 222.468 704.665 215.585 709.098 206.951C713.765 198.318 715.982 188.518 715.748 177.551C715.982 166.351 713.765 156.435 709.098 147.801C704.665 139.168 698.482 132.401 690.548 127.501C682.848 122.368 673.982 119.801 663.948 119.801C653.915 119.801 644.815 122.368 636.648 127.501C628.715 132.401 622.532 139.285 618.098 148.151C613.665 156.784 611.448 166.585 611.448 177.551C611.448 188.518 613.665 198.318 618.098 206.951C622.532 215.585 628.715 222.468 636.648 227.601C644.815 232.735 653.915 235.301 663.948 235.301ZM890.057 273.451C876.757 273.451 865.207 270.535 855.407 264.701C845.607 258.635 838.14 250.118 833.007 239.151C827.873 227.951 825.307 214.651 825.307 199.251V85.5012H868.357V190.151C868.357 199.951 869.873 208.351 872.907 215.351C875.94 222.118 880.373 227.368 886.207 231.101C892.04 234.835 899.04 236.701 907.207 236.701C913.273 236.701 918.757 235.768 923.657 233.901C928.79 231.801 933.223 229.001 936.957 225.501C940.69 221.768 943.607 217.451 945.707 212.551C947.807 207.418 948.857 201.935 948.857 196.101V85.5012H991.907V269.951H949.907L949.207 231.451L956.907 227.251C954.107 236.118 949.323 244.051 942.557 251.051C936.023 257.818 928.207 263.301 919.107 267.501C910.007 271.468 900.323 273.451 890.057 273.451ZM1090.31 269.951V38.6012H1133.36V269.951H1090.31ZM1053.91 125.401V85.5012H1173.61V125.401H1053.91Z" fill="#FF7F11"/>
</svg>
