<svg width="1175" height="275" viewBox="0 0 1175 275" fill="none" xmlns="http://www.w3.org/2000/svg">
<path d="M100.986 270.213C82.579 270.213 64.2982 267.814 46.1434 263.015C27.9886 257.964 12.6075 250.892 0 241.8L23.8281 194.823C33.9141 202.148 45.6391 207.956 59.003 212.25C72.367 216.544 85.857 218.69 99.4731 218.69C114.854 218.69 126.957 215.66 135.783 209.598C144.608 203.537 149.02 195.202 149.02 184.594C149.02 174.492 145.112 166.536 137.296 160.727C129.479 154.918 116.871 152.014 99.4731 152.014H71.4845V111.477L145.238 27.7524L152.046 49.7255H13.2379V0.475586H198.568V40.2543L125.192 123.979L94.1779 106.173H111.954C144.482 106.173 169.066 113.498 185.708 128.146C202.35 142.795 210.671 161.611 210.671 184.594C210.671 199.496 206.763 213.513 198.946 226.646C191.13 239.527 179.152 250.008 163.015 258.09C146.877 266.172 126.201 270.213 100.986 270.213Z" fill="#2E2E2E"/>
<path d="M277.74 266.276L384.628 24.0179L400.548 50.5979H257.651L284.941 21.7396V93.8853H230.36V0.475586H443V40.3456L344.45 266.276H277.74Z" fill="#6610F2"/>
<path d="M484.65 274.063C476.25 274.063 469.717 271.613 465.05 266.713C460.617 261.813 458.4 254.93 458.4 246.063C458.4 237.897 460.733 231.247 465.4 226.113C470.3 220.747 476.717 218.063 484.65 218.063C493.05 218.063 499.467 220.513 503.9 225.413C508.567 230.08 510.9 236.963 510.9 246.063C510.9 254.23 508.45 260.997 503.55 266.363C498.883 271.497 492.583 274.063 484.65 274.063ZM641.198 273.713C624.865 273.713 610.165 271.03 597.098 265.663C584.265 260.063 573.765 252.13 565.598 241.863L593.598 217.713C600.598 225.647 608.415 231.363 617.048 234.863C625.682 238.363 634.782 240.113 644.348 240.113C648.315 240.113 651.815 239.647 654.848 238.713C658.115 237.78 660.915 236.38 663.248 234.513C665.582 232.647 667.332 230.547 668.498 228.213C669.898 225.647 670.598 222.847 670.598 219.813C670.598 214.213 668.498 209.78 664.298 206.513C661.965 204.88 658.232 203.13 653.098 201.263C648.198 199.397 641.782 197.53 633.848 195.663C621.248 192.397 610.748 188.663 602.348 184.463C593.948 180.03 587.415 175.13 582.748 169.763C578.782 165.33 575.748 160.313 573.648 154.713C571.782 149.113 570.848 143.047 570.848 136.513C570.848 128.347 572.598 120.997 576.098 114.463C579.832 107.697 584.848 101.863 591.148 96.9634C597.448 92.0634 604.798 88.33 613.198 85.7634C621.598 83.1967 630.348 81.9134 639.448 81.9134C648.782 81.9134 657.765 83.08 666.398 85.4134C675.265 87.7467 683.432 91.13 690.898 95.5634C698.598 99.7634 705.132 104.897 710.498 110.963L686.698 137.213C682.265 133.013 677.365 129.28 671.998 126.013C666.865 122.747 661.615 120.18 656.248 118.313C650.882 116.213 645.865 115.163 641.198 115.163C636.765 115.163 632.798 115.63 629.298 116.563C625.798 117.263 622.882 118.43 620.548 120.063C618.215 121.697 616.348 123.797 614.948 126.363C613.782 128.697 613.198 131.497 613.198 134.763C613.432 137.563 614.132 140.247 615.298 142.813C616.698 145.147 618.565 147.13 620.898 148.763C623.465 150.397 627.315 152.263 632.448 154.363C637.582 156.463 644.232 158.447 652.398 160.313C663.832 163.347 673.398 166.73 681.098 170.463C688.798 174.197 694.865 178.513 699.298 183.413C703.732 187.613 706.882 192.513 708.748 198.113C710.615 203.713 711.548 209.897 711.548 216.663C711.548 227.63 708.398 237.43 702.098 246.063C696.032 254.697 687.632 261.463 676.898 266.363C666.398 271.263 654.498 273.713 641.198 273.713ZM863.921 273.713C844.555 273.713 827.405 269.63 812.471 261.463C797.771 253.297 786.221 242.213 777.821 228.213C769.655 213.98 765.571 197.763 765.571 179.563C765.571 165.097 767.905 151.913 772.571 140.013C777.238 128.113 783.655 117.847 791.821 109.213C800.221 100.347 810.138 93.58 821.571 88.9134C833.238 84.0134 845.955 81.5634 859.721 81.5634C871.855 81.5634 883.171 83.8967 893.671 88.5634C904.171 93.23 913.271 99.6467 920.971 107.813C928.671 115.747 934.505 125.313 938.471 136.513C942.671 147.48 944.655 159.497 944.421 172.563L944.071 187.613H794.621L786.571 158.213H908.021L902.421 164.163V156.463C901.721 149.23 899.388 142.93 895.421 137.563C891.455 131.963 886.321 127.647 880.021 124.613C873.955 121.347 867.188 119.713 859.721 119.713C848.288 119.713 838.605 121.93 830.671 126.363C822.971 130.797 817.138 137.213 813.171 145.613C809.205 153.78 807.221 164.047 807.221 176.413C807.221 188.313 809.671 198.697 814.571 207.563C819.705 216.43 826.821 223.313 835.921 228.213C845.255 232.88 856.105 235.213 868.471 235.213C877.105 235.213 885.038 233.813 892.271 231.013C899.505 228.213 907.321 223.197 915.721 215.963L937.071 245.713C930.771 251.547 923.538 256.563 915.371 260.763C907.438 264.73 899.038 267.88 890.171 270.213C881.305 272.547 872.555 273.713 863.921 273.713ZM1089.65 273.713C1072.38 273.713 1056.87 269.513 1043.1 261.113C1029.33 252.713 1018.48 241.28 1010.55 226.813C1002.62 212.347 998.65 196.013 998.65 177.813C998.65 159.613 1002.62 143.28 1010.55 128.813C1018.48 114.347 1029.33 102.913 1043.1 94.5134C1056.87 86.1134 1072.38 81.9134 1089.65 81.9134C1106.22 81.9134 1121.27 85.0634 1134.8 91.3634C1148.33 97.6634 1158.83 106.413 1166.3 117.613L1142.5 146.313C1139 141.413 1134.57 136.98 1129.2 133.013C1123.83 129.047 1118.12 125.897 1112.05 123.563C1105.98 121.23 1099.92 120.063 1093.85 120.063C1083.58 120.063 1074.37 122.63 1066.2 127.763C1058.27 132.663 1051.97 139.547 1047.3 148.413C1042.63 157.047 1040.3 166.847 1040.3 177.813C1040.3 188.78 1042.63 198.58 1047.3 207.213C1052.2 215.847 1058.73 222.73 1066.9 227.863C1075.07 232.997 1084.17 235.563 1094.2 235.563C1100.27 235.563 1106.1 234.63 1111.7 232.763C1117.53 230.663 1123.02 227.747 1128.15 224.013C1133.28 220.28 1138.07 215.613 1142.5 210.013L1166.3 239.063C1158.37 249.33 1147.4 257.73 1133.4 264.263C1119.63 270.563 1105.05 273.713 1089.65 273.713Z" fill="#6610F2"/>
</svg>
