<svg width="850" height="137" viewBox="0 0 850 137" fill="none" xmlns="http://www.w3.org/2000/svg">
<path d="M0 28.2303V0H107.885V28.2303H69.7101V136.17H38.1746V28.2303H0Z" fill="white"/>
<path d="M413.281 136.17V0H452.286L487.141 83.0303L521.166 0H561V136.17H529.464V58.1212L497.099 136.17H478.012L444.817 58.1212V136.17H413.281Z" fill="white"/>
<path d="M131.121 28.2303V0H227.388V28.2303H131.121Z" fill="white"/>
<path d="M225.728 54.8H131.121V136.17H227.388V107.939H162.657V83.0303H225.728V54.8Z" fill="white"/>
<path d="M299.587 103.788H341.081L319.504 137L299.587 103.788Z" fill="white"/>
<path d="M338.592 0H302.077L248.965 136.17H285.479L320.334 39.0242L356.019 136.17H390.044L338.592 0Z" fill="white"/>
<path d="M676.291 137C666.942 137 657.657 135.781 648.436 133.344C639.215 130.779 631.403 127.187 625 122.569L637.102 98.7093C642.225 102.429 648.18 105.38 654.968 107.56C661.755 109.741 668.607 110.831 675.522 110.831C683.335 110.831 689.482 109.292 693.964 106.213C698.446 103.135 700.688 98.9017 700.688 93.514C700.688 88.383 698.703 84.3422 694.732 81.3919C690.762 78.4415 684.359 76.9663 675.522 76.9663H661.307V56.3778L698.767 13.8539L702.224 25.014H631.724V0H725.853V20.2037L688.585 62.7275L672.833 53.684H681.862C698.382 53.684 710.869 57.404 719.321 64.8441C727.774 72.2842 732 81.8408 732 93.514C732 101.082 730.015 108.202 726.045 114.872C722.075 121.414 715.992 126.738 707.795 130.843C699.599 134.948 689.098 137 676.291 137Z" fill="white"/>
<path d="M766.064 135L820.353 11.9571L828.439 25.4571H755.861L769.722 10.8V47.4429H742V0H850V20.25L799.947 135H766.064Z" fill="white"/>
</svg>
