<svg width="499" height="586" viewBox="0 0 499 586" fill="none" xmlns="http://www.w3.org/2000/svg">
<g clip-path="url(#clip0_1682_536)">
<path d="M282.732 2.33755C277.799 5.13755 276.465 10.3376 275.265 31.8042L274.199 50.4709L267.265 63.0042C263.399 69.9376 258.599 79.1376 256.599 83.2709C254.599 87.5376 252.332 90.8709 251.532 91.0042C249.932 91.0042 234.199 71.8042 231.265 66.3376C228.599 61.1376 225.932 48.8709 223.665 31.1376C222.599 21.9376 221.399 14.2042 220.999 13.9376C220.732 13.5376 216.065 14.8709 210.599 16.8709C200.999 20.3376 193.665 25.5376 193.665 28.7376C193.665 29.6709 195.799 37.9376 198.465 47.1376C204.599 67.8042 206.199 89.1376 202.332 97.6709C198.599 105.938 181.932 115.271 176.332 112.338C168.199 107.938 156.332 117.004 156.332 127.538C156.332 134.204 170.732 141.671 183.399 141.671C194.465 141.671 205.399 131.671 214.065 113.538C216.332 108.604 218.999 104.471 219.799 104.471C220.732 104.338 224.732 107.938 228.865 112.338C237.532 121.671 238.999 126.071 243.265 151.671C244.732 161.138 246.465 169.538 246.999 170.071C247.532 170.738 252.065 166.604 257.132 161.004L266.199 151.004L265.799 131.271C265.665 117.271 266.065 109.938 267.399 105.404C269.665 98.0709 286.465 73.2709 288.732 73.9376C289.665 74.2042 292.999 79.6709 296.332 86.0709L302.332 97.5376L293.799 114.604C286.999 128.338 285.132 133.271 284.732 139.671C284.065 147.004 284.332 148.204 287.665 152.071C297.265 163.404 313.665 163.671 320.599 152.604C323.132 148.471 323.532 145.538 324.065 128.871L324.599 109.938L330.332 109.138C358.332 105.404 368.865 97.4042 360.199 86.4709C357.932 83.5376 356.465 83.0042 350.599 83.0042C346.732 83.0042 339.265 84.2042 333.799 85.6709C328.332 87.0042 323.399 87.9376 322.865 87.6709C322.465 87.2709 320.599 83.5376 318.999 79.4042C317.265 75.1376 312.599 66.7376 308.599 60.6042L301.399 49.4042L302.999 41.2709C307.665 17.6709 307.132 11.0042 300.332 4.07088C295.932 -0.195785 288.865 -0.862453 282.732 2.33755Z" fill="#71717A"/>
<path d="M478.333 193.534C473.533 195.534 470.6 200.067 470.066 206.601C469.533 211.801 470.066 213.934 472.6 217.667C479.533 227.801 489.533 227.534 495.666 217.134C499.666 210.334 499.8 206.467 496.333 200.734C492.2 193.934 484.733 191.001 478.333 193.534ZM488.333 197.001C493.133 199.534 495 202.734 495 208.734C495 213.801 491 219.934 486.466 221.667C479.666 224.201 471.4 214.467 473.133 205.667C473.933 201.801 480.333 195.001 483.133 195.001C483.933 195.001 486.2 195.934 488.333 197.001Z" fill="#71717A"/>
<path d="M479 203.669C478.066 204.869 477.666 206.069 478.2 206.602C478.6 207.002 479 206.736 479 205.802C479 205.002 480.333 203.669 482.066 203.002C484.066 202.202 484.333 201.802 482.866 201.802C481.666 201.669 479.933 202.602 479 203.669Z" fill="#71717A"/>
<path d="M477.8 210.469C477.8 211.936 478.2 212.336 478.6 211.269C479 210.336 478.866 209.136 478.466 208.736C478.066 208.203 477.666 209.003 477.8 210.469Z" fill="#71717A"/>
<path d="M272.333 215.403C264.6 219.537 259.533 226.07 255.666 237.137C252.466 246.07 252.333 246.337 246.866 247.403C238.066 249.27 229.666 258.47 224.466 272.47C219.533 285.803 215.133 294.337 212.066 297.27C209.8 299.27 209.666 299.003 209.666 293.537C209.666 290.337 210.6 281.937 211.666 275.003C214.466 257.003 214.2 253.137 210.466 248.737C207.666 245.537 206.866 245.27 203.533 246.337C201.533 247.137 197.8 250.203 195.4 253.403C190.866 259.403 188.866 260.203 189.4 255.537C189.666 253.937 188.333 250.87 186.466 248.87L183.133 245.003L178.066 247.67C175.266 249.137 171.8 252.203 170.333 254.603C167.133 259.67 165.933 259.937 164.466 255.937C163.8 254.337 161.933 251.67 160.466 250.07C149.8 238.87 132.066 253.937 127 278.203C124.6 290.203 126.2 299.803 131.666 305.27C138.466 312.07 144.733 310.737 154.466 300.07C159.933 294.203 165.666 280.737 165.666 273.937C165.666 270.737 171.666 261.003 175.8 257.537C177.933 255.803 178.066 256.203 177.266 265.137C176.733 270.337 175.133 281.403 173.666 289.803C170.2 309.803 169.933 308.603 176.733 308.07C182.2 307.67 182.333 307.537 183.4 301.67C186.2 285.937 187.533 281.537 192.733 271.137C201.8 253.003 203.533 255.403 199.666 280.87C197 298.87 197.133 303.803 200.333 307.003C201.8 308.47 203.8 309.67 204.733 309.67C206.866 309.67 214.333 304.203 217.133 300.737C218.6 299.003 219.4 298.737 219.933 300.07C221.533 304.07 227.4 309.67 230.066 309.67C231.666 309.67 235.533 306.87 239.266 303.003C245 297.003 245.666 296.737 245.666 299.537C245.666 303.537 250.466 309.67 253.8 309.67C255.133 309.67 259.133 307.003 262.6 303.67C269.533 297.003 269.666 296.87 269.666 299.537C269.666 302.737 276.333 309.67 279.4 309.67C281 309.67 284.866 306.87 288.6 303.003C292.066 299.27 295.266 296.337 295.666 296.337C296.066 296.337 296.333 298.337 296.333 300.737C296.333 305.27 299.533 309.67 302.866 309.67C303.8 309.67 306.333 308.603 308.466 307.403C312.066 305.27 312.6 305.27 317 307.403C324.2 310.87 328.466 310.203 335.4 305.003C339.933 301.537 341.8 299.137 342.466 295.537C343.8 288.07 342.333 281.137 337.266 272.737C330.866 262.07 330.333 259.67 333.533 256.47C336.866 253.137 340.333 254.203 340.333 258.337C340.333 261.803 343.933 265.403 345.666 263.537C346.2 262.87 347.133 259.537 347.666 256.203C348.733 248.87 346.6 246.337 338.733 246.337C334.333 246.337 332.6 247.27 329 251.27C326.466 253.937 323.8 258.603 322.866 261.67C321.266 267.003 321.4 267.537 327.4 279.403C333.8 291.803 334.6 295.403 332.333 299.003C331.266 300.603 330.333 300.47 325.133 297.937C320.2 295.67 319 294.337 319 291.67C319 286.737 316.066 287.67 312.6 293.67C309.666 298.737 307 300.603 307 297.537C307 296.737 308.466 285.67 310.333 272.87C312.2 259.937 313.4 248.87 312.866 248.203C312.466 247.537 308.466 247.003 303.8 247.003C288.6 247.003 279.8 255.403 271.933 277.137C269.4 284.203 266.333 289.937 262.866 293.803L257.533 299.67L258.333 290.337C259.666 276.07 265.4 239.137 267.666 231.403C269.933 223.537 273 221.803 279.533 224.337C281.666 225.137 283.4 225.537 283.533 225.403C283.666 225.137 285.133 223.003 286.866 220.603C290.333 215.537 289.666 214.337 282.866 213.137C279.266 212.47 276.733 213.137 272.333 215.403ZM153 271.403C153 285.937 150.6 295.137 145.666 299.67C143.266 301.803 143 301.803 140.333 297.537C137.933 293.67 137.533 291.537 138.066 283.003C138.866 271.537 142.066 261.003 146.066 256.603C148.6 253.937 149 253.803 150.866 255.67C152.466 257.27 153 260.87 153 271.403ZM250.066 263.27C249.8 271.27 237.133 296.737 233.8 296.07C230.866 295.403 231.533 283.937 235.133 271.67C239 258.603 240.866 256.07 246.066 256.603C250.2 257.003 250.333 257.137 250.066 263.27ZM300.066 261.67C300.6 268.603 286.733 296.337 282.733 296.337C280.866 296.337 282.2 279.67 284.733 270.07C287.533 259.537 290.333 256.07 295.4 256.603C299.266 257.003 299.666 257.537 300.066 261.67Z" fill="#71717A"/>
<path d="M116.6 214.602C114.067 215.002 111.534 216.335 110.334 218.202C108.6 220.868 102.067 235.535 91.667 260.602C89.667 265.668 87.4004 269.668 86.867 269.668C86.3337 269.668 85.5337 267.668 85.1337 265.268C82.867 250.068 77.5337 221.535 76.3337 218.468C75.1337 215.002 74.7337 214.868 68.7337 215.668C58.467 217.135 54.3337 218.735 48.7337 224.068C45.267 227.268 42.3337 231.802 40.467 236.735C37.667 244.202 36.6004 255.002 38.7337 255.002C39.267 255.002 41.9337 253.535 44.467 251.802C48.467 249.002 49.4004 247.535 49.9337 242.735C50.867 235.002 54.3337 227.802 58.3337 225.668C60.2004 224.735 62.067 224.202 62.467 224.602C64.3337 226.602 56.467 280.868 52.867 290.468C51.8004 293.535 49.8004 297.002 48.467 298.335C46.2004 300.335 45.5337 300.335 42.067 298.602C39.9337 297.402 37.4004 295.002 36.3337 293.135C33.9337 288.468 32.2004 288.735 28.467 294.602C24.867 300.202 25.4004 301.935 32.3337 306.602C38.2004 310.735 42.7337 310.468 49.9337 305.668C59.8004 299.135 66.2004 284.335 67.8004 264.202C69.4004 245.402 72.7337 253.002 75.267 281.402C76.7337 298.068 77.0004 299.135 79.667 298.735C82.7337 298.335 87.5337 290.202 94.2004 273.668C101.667 255.135 104.734 248.868 105.4 250.735C105.667 251.668 104.734 260.335 103.134 270.068C98.6004 299.402 97.267 309.802 98.067 310.602C99.267 311.668 118.067 305.668 120.734 303.402C124.334 300.068 123.534 297.668 118.6 297.668C110.467 297.668 110.2 303.135 122.334 219.268C122.734 216.202 122.734 213.802 122.067 213.935C121.534 213.935 119 214.335 116.6 214.602Z" fill="#71717A"/>
<path d="M461.399 225.269C452.732 234.203 450.199 245.403 458.065 239.803C464.199 235.536 465.399 234.069 467.532 229.003C469.665 223.936 469.532 220.336 467.265 220.336C466.732 220.336 464.065 222.603 461.399 225.269Z" fill="#71717A"/>
<path d="M407.4 249.539C401.133 254.072 396.067 264.605 398.733 267.272C399.667 268.205 400.467 268.605 400.733 268.205C400.867 267.939 402.733 265.005 404.867 261.805C407.133 258.205 409 256.605 409.533 257.539C410.6 259.272 409.133 273.539 405.8 293.539C403.267 308.605 403.4 308.872 411.267 308.072L415.667 307.672L416.733 297.672C417.533 289.405 418.867 285.272 424.733 273.672L431.667 259.672L436.6 260.072C440.333 260.472 441.533 259.939 442.067 258.072C442.6 256.205 442.733 256.339 442.867 258.739C443 261.539 443.4 261.805 447.133 261.005L451.4 260.072L450.6 265.139C450.067 268.072 448.733 277.405 447.533 286.072C445.4 301.539 445.4 302.072 447.933 305.405C452.2 311.272 455.667 310.739 463.133 303.272C468.2 298.205 469.667 295.805 469.667 292.472C469.667 290.205 469.267 288.339 468.733 288.339C468.067 288.339 465.8 290.605 463.4 293.272C461.133 296.072 458.867 297.939 458.467 297.539C457.667 296.739 461.8 261.272 463.8 251.139C464.867 245.805 462.733 245.672 452.333 251.005C447.933 253.139 444.2 255.005 443.933 255.005C443.667 255.005 443.667 253.539 443.933 251.805C444.467 249.539 443.8 248.205 441.933 247.139C437.267 244.605 432.6 247.405 424.467 257.672L421.8 261.005L421.667 257.272C421.667 251.272 418.067 245.805 414.2 245.672C413.4 245.672 410.333 247.405 407.4 249.539Z" fill="#71717A"/>
<path d="M372.999 249.135C365.799 252.735 360.466 259.268 356.333 269.135C349.799 285.001 349.266 301.401 355.266 307.001C359.799 311.135 362.999 310.201 369.799 303.001L376.066 296.335L376.866 300.601C377.933 305.668 381.266 309.668 384.466 309.668C389.799 309.668 400.333 297.401 400.333 291.001C400.333 287.001 398.066 287.801 394.733 293.001C390.733 299.135 388.333 299.935 388.333 295.268C388.333 293.268 389.799 282.068 391.666 270.468C393.399 258.735 394.599 248.735 394.199 248.068C392.999 246.201 377.266 246.868 372.999 249.135ZM380.733 263.135C380.599 267.801 378.733 272.868 373.666 282.735C366.466 296.868 363.533 299.801 362.199 294.335C361.133 289.801 364.866 272.335 368.866 263.535C372.066 256.601 372.466 256.201 376.599 256.601C380.866 257.001 380.999 257.135 380.733 263.135Z" fill="#71717A"/>
<path d="M0.466327 281.402C0.199661 288.736 4.73299 325.003 7.79966 340.603C15.6663 381.269 32.9997 425.536 54.333 459.669C64.1997 475.536 64.8663 476.336 75.7997 490.336C108.333 531.403 156.066 565.003 198.466 576.736C223.933 583.803 229.8 584.736 254.2 585.403C279.8 586.069 289.266 585.003 311.666 579.536C369.8 565.003 423.933 523.936 462.2 465.002C469 454.602 481.133 431.803 479.533 432.469C478.866 432.736 474.466 435.269 469.666 437.936C444.066 452.469 383.933 470.069 342.333 475.136C324.733 477.269 295 477.269 285 475.136C269 471.669 259.4 464.469 255 452.469C251 442.069 247.933 438.469 240.066 434.869C233.266 431.936 231.8 431.803 195.666 431.669C143.533 431.669 145.8 433.003 131.4 393.136C122.6 368.469 115.933 357.136 108.866 354.203C105.4 352.736 96.1997 351.936 77.133 351.136C51.933 350.203 49.7997 349.936 42.5997 346.603C22.4663 337.403 11.7997 321.536 3.13299 288.336C1.66633 282.869 0.466327 279.669 0.466327 281.402Z" fill="#71717A"/>
<path d="M197.667 359.402C197.667 362.468 197.001 370.068 196.334 376.202C195.534 382.335 195.134 387.668 195.534 387.935C195.934 388.335 198.867 389.002 202.067 389.268C206.867 389.802 208.467 389.402 211.534 386.735C216.334 382.602 217.801 372.868 214.467 367.668C211.801 363.535 208.867 363.402 204.601 367.268L201.267 370.335L202.201 361.935C203.134 354.202 203.001 353.668 200.334 353.668C198.067 353.668 197.667 354.468 197.667 359.402ZM211.001 374.468C211.001 381.535 208.467 385.802 204.467 385.402C199.001 384.735 199.001 376.335 204.334 371.002C207.934 367.402 211.001 369.002 211.001 374.468Z" fill="#71717A"/>
<path d="M223.933 354.604C221.933 356.604 222.999 360.337 225.666 360.337C227.666 360.337 228.333 359.404 228.333 357.004C228.333 353.804 225.933 352.47 223.933 354.604Z" fill="#71717A"/>
<path d="M233 367.268C231.4 388.335 231.4 388.868 233.8 389.401C235.533 389.668 236.2 388.201 236.867 381.668C237.8 373.535 241.533 367.268 244.333 369.001C245.133 369.535 245.667 374.335 245.667 379.801C245.667 387.801 246.067 389.668 247.667 389.668C250.2 389.668 250.6 388.601 251.667 378.201C252.333 371.401 252.067 369.535 249.933 366.868C247.533 363.935 247 363.935 243.533 365.668C241.4 366.735 239.133 367.801 238.6 368.068C237.933 368.335 237.8 365.268 238.333 361.135C239.267 354.335 239.133 353.668 236.733 353.668C234.333 353.668 233.933 355.001 233 367.268Z" fill="#71717A"/>
<path d="M341.265 354.471C339.265 356.471 340.332 360.471 342.732 360.071C343.932 359.804 344.999 358.471 344.999 357.137C344.999 354.471 342.865 353.004 341.265 354.471Z" fill="#71717A"/>
<path d="M152.333 360.069C152.333 362.203 151.933 369.403 151.533 376.069L150.6 388.336H159.533C166.466 388.336 168.333 387.936 168.333 386.336C168.333 384.869 166.866 384.336 162.6 384.336C159.4 384.336 156.466 384.069 156.066 383.669C155.666 383.269 155.8 379.803 156.466 375.936C159.266 356.069 159.266 356.336 155.666 356.336C152.866 356.336 152.333 357.003 152.333 360.069Z" fill="#71717A"/>
<path d="M269.133 366.603C267.666 384.47 267.933 388.07 271.133 389.003C280.999 392.203 292.333 381.936 292.333 369.936C292.333 365.936 291.399 363.67 288.466 360.47C284.999 356.87 283.799 356.336 277.266 356.336H270.066L269.133 366.603ZM283.799 362.203C287.799 365.136 287.399 376.336 283.133 380.87C281.266 382.736 278.333 384.336 276.599 384.336H273.266L274.066 373.536C274.599 367.67 275.266 362.336 275.666 361.536C276.866 359.803 280.733 360.07 283.799 362.203Z" fill="#71717A"/>
<path d="M176.466 368.202C171.133 373.268 170.6 382.202 175.4 386.735C179.4 390.468 184.466 390.468 187.8 386.868L190.333 384.068L185.933 385.002C181 386.068 177.666 384.068 177.666 380.335C177.666 378.602 179.133 377.668 182.733 377.002C189 375.802 191 374.202 191 370.202C191 363.668 182.6 362.468 176.466 368.202ZM186.6 370.335C187.533 373.002 187.266 373.135 182.066 374.335C178.6 375.002 177.666 374.735 177.666 373.135C177.666 369.135 185.133 366.735 186.6 370.335Z" fill="#71717A"/>
<path d="M309 365.533C302.066 367.266 299.133 369.533 297.533 374.733C294.333 385.533 298.2 392.199 305.266 388.066C308.066 386.466 309.533 386.333 311.266 387.399C312.466 388.199 313.8 388.599 314.066 388.333C314.333 387.933 315 382.466 315.533 375.933C316.466 363.399 316.6 363.666 309 365.533ZM311 372.599C311 376.999 306.733 384.999 304.333 384.999C301.533 384.999 301 376.866 303.666 372.866C306.333 368.733 311 368.599 311 372.599Z" fill="#71717A"/>
<path d="M322.466 372.466C321.532 381.933 321.399 389.666 322.199 389.666C325.799 389.666 326.999 387.533 326.999 381.133C326.999 373.666 328.732 370.199 332.999 369.399C336.199 368.866 337.532 364.333 334.466 364.333C333.399 364.333 331.799 365.399 330.999 366.599C329.666 368.866 329.666 368.866 328.332 366.599C325.399 361.933 323.399 364.066 322.466 372.466Z" fill="#71717A"/>
<path d="M220.999 377.134C220.466 383.401 220.333 388.734 220.733 389.134C220.999 389.401 222.333 389.401 223.533 388.868C225.133 388.201 225.666 386.334 225.666 381.001C225.666 377.134 226.066 372.068 226.466 369.801C227.266 366.334 226.999 365.668 224.599 365.668C222.199 365.668 221.933 366.868 220.999 377.134Z" fill="#71717A"/>
<path d="M338.466 372.602C337.266 383.002 337.533 388.068 339.133 389.135C341.8 390.735 342.733 387.802 343.266 376.602C343.666 367.268 343.4 365.668 341.533 365.668C339.933 365.668 339.133 367.402 338.466 372.602Z" fill="#71717A"/>
<path d="M431.266 400.602C428.599 403.269 429.399 405.935 432.733 405.402C434.599 405.135 435.799 403.935 436.066 401.935C436.599 398.735 433.933 397.935 431.266 400.602Z" fill="#71717A"/>
<path d="M266.466 410.601C269.266 417.935 269.799 421.001 269.132 426.601C268.332 433.401 268.466 433.668 271.666 433.668C274.732 433.668 274.999 433.135 274.999 427.935C274.999 423.668 276.199 420.068 279.799 414.201C287.399 401.535 287.399 401.668 284.599 401.668C282.999 401.668 280.999 404.068 278.599 409.001C276.599 413.001 274.466 416.335 273.799 416.335C273.132 416.335 272.199 414.068 271.666 411.401C270.466 404.468 268.732 401.668 265.666 401.668C263.266 401.668 263.266 402.068 266.466 410.601Z" fill="#71717A"/>
<path d="M379.801 415.672C379.267 423.405 378.601 430.472 378.201 431.538C377.134 434.205 380.334 434.872 389.534 434.072C396.334 433.405 397.667 432.872 397.667 430.738C397.667 428.605 396.867 428.205 391.401 428.605C384.067 429.005 384.467 430.205 386.067 411.938C387.001 401.805 386.867 401.672 383.801 401.672C380.867 401.672 380.734 402.205 379.801 415.672Z" fill="#71717A"/>
<path d="M360.732 406.602C359.799 407.002 358.999 408.069 358.999 409.136C358.999 410.736 357.666 410.869 352.466 410.202C346.999 409.536 345.532 409.802 343.132 412.202C337.532 417.802 340.732 425.669 348.732 425.669C355.532 425.669 358.999 422.469 358.999 416.202C358.999 412.602 359.532 411.002 360.866 411.002C363.399 411.002 364.999 408.469 363.532 407.002C362.866 406.469 361.532 406.336 360.732 406.602ZM354.199 415.936C355.399 418.869 350.866 423.402 347.932 422.202C345.666 421.402 344.866 416.336 346.599 414.602C348.332 412.869 353.399 413.669 354.199 415.936Z" fill="#71717A"/>
<path d="M299 411.003C296.467 411.67 292.734 413.937 290.734 416.203C282.6 425.403 289 439.937 298.2 433.003C300.067 431.537 301.134 431.537 303.134 432.737C304.467 433.537 305.8 433.937 306.2 433.537C307.267 432.603 309.4 411.937 308.734 410.603C308.067 409.403 305.267 409.537 299 411.003ZM303 417.403C303 421.937 298.6 430.337 296.334 430.337C291.267 430.337 291.4 421.137 296.6 416.337C300.6 412.603 303 413.003 303 417.403Z" fill="#71717A"/>
<path d="M314.599 410.602C314.199 411.268 313.665 416.735 313.399 423.002C313.132 432.335 313.399 434.335 314.999 434.335C316.332 434.335 317.265 432.068 318.065 427.002C318.732 422.735 320.465 418.468 322.065 416.602C326.999 411.402 328.199 412.735 328.599 423.935C328.865 432.068 329.399 434.335 330.999 434.335C332.465 434.335 333.132 432.202 333.799 425.668C334.732 413.402 333.799 410.468 328.599 409.935C325.665 409.668 324.065 410.202 323.532 411.535C322.465 414.202 319.532 414.335 318.465 411.668C317.665 409.535 315.532 409.002 314.599 410.602Z" fill="#71717A"/>
<path d="M411.799 411.001C403.399 412.601 399.132 419.668 400.866 429.001C401.932 434.601 405.666 436.201 410.599 432.868C413.132 431.268 414.332 431.134 414.732 432.068C414.999 433.001 416.066 433.668 416.999 433.668C418.732 433.668 419.132 432.201 420.866 415.934C421.666 409.001 421.799 409.001 411.799 411.001ZM415.666 415.001C416.866 417.001 413.532 426.601 410.866 429.134C407.532 432.068 405.666 430.334 405.666 424.334C405.666 420.334 406.466 418.601 409.132 416.468C413.132 413.401 414.466 413.001 415.666 415.001Z" fill="#71717A"/>
<path d="M441.267 410.602C440.867 411.269 440.2 417.002 439.667 423.402C438.734 434.602 438.867 435.269 441.134 434.735C443.134 434.469 443.8 432.735 444.334 427.669C445.134 420.202 449 413.802 452.867 413.669C455.134 413.669 455.267 414.469 454.734 423.669C454.067 433.402 454.067 433.669 457.267 433.669C460.2 433.669 460.334 433.269 460.334 422.469C460.334 413.535 459.934 411.135 458.2 410.469C454.734 409.135 451.934 409.535 449.267 411.935C446.867 414.202 446.734 414.202 445.534 411.935C444.2 409.535 442.2 409.002 441.267 410.602Z" fill="#71717A"/>
<path d="M429.266 411.938C428.866 412.604 428.466 417.804 428.199 423.671C427.666 433.671 427.799 434.338 430.332 433.938C431.799 433.671 433.132 433.271 433.132 433.271C433.266 433.138 433.666 428.071 434.199 421.938C434.999 411.671 434.866 411.004 432.466 411.004C430.999 411.004 429.532 411.404 429.266 411.938Z" fill="#71717A"/>
<path d="M340.333 430.467C340.333 432.333 339.267 435.667 338.067 437.933C335.667 441.8 335.667 441.933 339 444.6C346.067 450.333 360.333 444.6 360.333 436.2C360.333 431.667 357.133 429.667 349.8 429.667C346.867 429.667 344.067 429 343.667 428.333C342.067 425.8 340.333 427 340.333 430.467ZM354.733 436.6C357.133 439 351.533 444.333 346.733 444.333C343.933 444.333 342.867 443.533 342.2 441.133C341.8 439.267 341.8 437.133 342.333 436.467C343.533 434.467 352.733 434.6 354.733 436.6Z" fill="#71717A"/>
</g>
<defs>
<clipPath id="clip0_1682_536">
<rect width="499" height="586" fill="white"/>
</clipPath>
</defs>
</svg>
